<svg xmlns="http://www.w3.org/2000/svg" viewBox="0 0 177.47 166.98">
   <defs>
      <style>.cls-1,.cls-4,.cls-7{fill:#e6e6e6;}.cls-1,.cls-7{stroke:#e6e6e6;}.cls-1,.cls-10,.cls-3,.cls-4,.cls-5,.cls-6,.cls-7,.cls-8,.cls-9{stroke-miterlimit:10;}.cls-1,.cls-4{stroke-width:4px;}.cls-10,.cls-2,.cls-3,.cls-9{fill:none;}.cls-3{stroke:blue;}.cls-4{stroke:gray;}.cls-5{fill:#2a5d67;}.cls-5,.cls-6{stroke:#2a5d67;}.cls-6{fill:#ccc;}.cls-10,.cls-7,.cls-8,.cls-9{stroke-width:2px;}.cls-8{fill:#333;stroke:#333;}.cls-9{stroke:aqua;}.cls-10{stroke:#4ae3b5;}

.bug{
  transform: translate(80px, 55px) scale(2, 2);
  transition: 2s all;
}

.path{
  stroke-dasharray: 10;
  opacity :  0;
  transition: 2s all;
  
}

svg:hover .path{
  stroke-dashoffset : 100;
  opacity :  1;
}

svg:hover .bug{
  opacity :  1;
  transform: translate(-40px, -60px) scale(-2, -2);
}

</style>
   </defs>
   <g id="net">
      <path class="cls-1" d="M112.28,152.23c11.76,34.23,38.43,53.42,59.92,49.61,21.82-3.86,32-30.27,35-38.11,14.09-36.64-1.62-79.37-28.09-100.55-5.82-4.65-16.52-13-32.05-13.7-22.17-1.06-37.2,14.1-39.53,16.53C87.2,87.19,93.42,116.47,94,118.9Z" transform="translate(-37.02 -39.74)"/>
      <path class="cls-2" d="M49.64,107.8" transform="translate(-37.02 -39.74)"/>
      <path class="cls-3" d="M12,74.45" transform="translate(-37.02 -39.74)"/>
      <path class="cls-4" d="M115.52,160.48" transform="translate(-37.02 -39.74)"/>
   </g>
   <g id="handle">
      <path class="cls-5" d="M194.55,82.73C159.9,10.79,75.42,55.12,91.73,115l4.83,20L40.15,190.9A8.85,8.85,0,0,0,45.88,206c4.36,4.14,59.94-57,63.38-58.72C171.78,165.48,204.72,125.46,194.55,82.73ZM183.5,115.8c-21.14,50.67-98,24.12-84.25-29.1C118.5,27,206.21,58.07,183.5,115.8Z" transform="translate(-37.02 -39.74)"/>
      <circle class="cls-6" cx="105.41" cy="58.35" r="44.8"/>
   </g>
   <g id="bug">
      <circle class="cls-7 bug" cx="26.02" cy="2.28" r="1.28"/>
      <circle class="cls-7 bug" cx="17.14" cy="2.28" r="1.28"/>
      <circle class="cls-8 bug" cx="21.49" cy="7.25" r="3.7"/>
      <path class="cls-9 bug" d="M51.37,74.74" transform="translate(-37.02 -39.74)"/>
   </g>
   <g id="path">
      <path class="cls-10 path" d="M64.32,48.16c9.42-1.7,19-2.11,21.78,2.64s-2.94,10.63-.28,14.38c4.44,6.26,23-6.65,32.1.59,8.4,6.65.68,23.83,8.6,28.76,6.51,4,14.38-5.89,24.37-4.11,7,1.24,16.13,8.36,24.08,36.69" transform="translate(-37.02 -39.74)"/>
   </g>
</svg>