<svg id="Layer_1" data-name="Layer 1" xmlns="http://www.w3.org/2000/svg" viewBox="0 0 979.15 986.35"><defs><style>.hero-cls-1,.hero-cls-10,.hero-cls-2,.hero-cls-3,.hero-cls-4,.hero-cls-5,.hero-cls-6,.hero-cls-8,.hero-cls-9{fill:none;}.hero-cls-1{stroke:#8cc63f;}.hero-cls-1,.hero-cls-10,.hero-cls-11,.hero-cls-2,.hero-cls-3,.hero-cls-4,.hero-cls-5,.hero-cls-6,.hero-cls-7,.hero-cls-8,.hero-cls-9{stroke-miterlimit:10;}.hero-cls-1,.hero-cls-10,.hero-cls-11,.hero-cls-3,.hero-cls-4,.hero-cls-6,.hero-cls-8,.hero-cls-9{stroke-width:3px;}.hero-cls-11,.hero-cls-2,.hero-cls-3{stroke:#ffbee5;}.hero-cls-4,.hero-cls-5{stroke:#ffc292;}.hero-cls-6{stroke:#a3efff;}.hero-cls-7{fill:#fff;stroke:#dfcca8;}.hero-cls-8{stroke:#fed9ae;}.hero-cls-9{stroke:#000;}.hero-cls-10{stroke:#ff8181;}.hero-cls-11{fill:#e6e6e6;}</style></defs><path class="hero-cls-1" d="M144,66.05s-5.38-14-22.78-25.43c0,0-28.56-18.34-51.91-6.74,0,0-13.7,6.08-16.91,38S37,110,37,110s21.42,23.19,70.37,13.34l-.12-.94c-6.69-2.58-11.26-9.33-11.59-17.08-.43-9.85,8.37-18.24,17.55-18.24,9.84,0,17.12,8.36,17.55,18.24a16.62,16.62,0,0,1-2.55,9.42c.18.13.36.27.53.42C154.37,98.29,144,66.05,144,66.05Z" transform="translate(-10.5 -4.15)"/><polygon class="hero-cls-1" points="133.94 21.66 115.77 40.07 111.15 36.79 119.34 11.69 133.94 21.66"/><path class="hero-cls-2" d="M202.52,59.24" transform="translate(-10.5 -4.15)"/><path class="hero-cls-3" d="M248.57,97.51" transform="translate(-10.5 -4.15)"/><path class="hero-cls-3" d="M303.8,41c-24.21-52.26-83.26-20-71.86,23.43L235.31,79l-39.42,40.64c-3.8,3.92-1.34,10.67,4,11,3,3,41.89-41.43,44.29-42.66C287.89,101.14,310.91,72.07,303.8,41Zm-7.72,24C281.3,101.86,227.62,82.57,237.2,43.9,250.65.5,312,23.1,296.08,65.05Z" transform="translate(-10.5 -4.15)"/><ellipse class="hero-cls-3" cx="256.87" cy="48.02" rx="31.31" ry="32.56"/><path class="hero-cls-4" d="M408.88,108.76" transform="translate(-10.5 -4.15)"/><path class="hero-cls-4" d="M385.5,86.54l-.88-.59q-1.49,2.52-2.92,5.07c-3.42,6-6.62,12.24-9.88,18.39-3,5.58-6.23,11-8.41,17-.41,1.12-1.73,4.44.37,4.61,1.63.12,2.9-2.75,3.51-3.94,2.94-5.64,5.53-11.48,8.3-17.21,3.62-7.5,7.55-14.85,11.81-22C386.77,87.43,386.14,87,385.5,86.54Z" transform="translate(-10.5 -4.15)"/><path class="hero-cls-4" d="M388.31,83c-.43-.35-.87-.69-1.31-1L385.74,84l1.63,1.12,1.17.85c.38-.63.77-1.25,1.16-1.88Z" transform="translate(-10.5 -4.15)"/><path class="hero-cls-4" d="M490.78,33.39a40.13,40.13,0,0,0-30.91-12.65c-12.13.57-23.37,6.49-33,13.83C411,46.65,398.69,62.87,388.16,80c.72.57,1.42,1.15,2.11,1.72.21.16.41.34.61.5A197.68,197.68,0,0,1,418,48c8.54-8.53,18.11-16.37,29.27-20.82a43.64,43.64,0,0,1,35.87,1.37,45.43,45.43,0,0,1,7.68,4.87Z" transform="translate(-10.5 -4.15)"/><path class="hero-cls-5" d="M454.06,62.33" transform="translate(-10.5 -4.15)"/><path class="hero-cls-5" d="M485.38,26.65" transform="translate(-10.5 -4.15)"/><polygon class="hero-cls-4" points="376.9 83.75 378.04 81.86 375.24 79.89 374.12 81.8 376.9 83.75"/><polygon class="hero-cls-4" points="379.2 79.98 380.38 78.11 377.66 75.88 376.5 77.79 379.2 79.98"/><path class="hero-cls-6" d="M598.46,35.82c.26.06.5.13.74.2l.51,0a10.8,10.8,0,0,1,3.1.44c22.45-52.5-50.59-21.95-50.59-21.95C588.37,5.63,596.71,24,598.46,35.82Z" transform="translate(-10.5 -4.15)"/><path class="hero-cls-7" d="M549,30.61" transform="translate(-10.5 -4.15)"/><path class="hero-cls-6" d="M601.58,36.16a9.86,9.86,0,0,1,2.91,1,10.84,10.84,0,0,1,2.41-.27c9.36-9.64,28.69-19.5,57.26,14.72C664.16,51.57,612.53-31.88,601.58,36.16Z" transform="translate(-10.5 -4.15)"/><path class="hero-cls-6" d="M580.55,120.65c1,.5,2.1,1,3.18,1.39,1.67.68,3.36,1.32,5,1.94,1.75-2.32,3.1-4.68,4.74-6.92,8.72-11.94,16.81-8.76,27.38-18.27,9.69-8.72,20.23-27,14.1-42.27-5.84-14.58-23.59-18.36-26.15-18.87L599.23,37l-9.63-.64C575,36,562.24,44,557,55.45S553.91,81.7,569.42,95C581,105.29,582.57,114,580.55,120.65Z" transform="translate(-10.5 -4.15)"/><path class="hero-cls-6" d="M579.89,126.11c1.57.73,3.08,1.63,4.6,2.48a27.85,27.85,0,0,0,2.78-2.75,73.88,73.88,0,0,1-7.52-3,21.81,21.81,0,0,1-1.37,2.58C578.87,125.63,579.38,125.87,579.89,126.11Z" transform="translate(-10.5 -4.15)"/><path class="hero-cls-6" d="M581.94,129.77c-1.43-.79-2.85-1.53-4.31-2.24l-.54-.27A30.69,30.69,0,0,1,575,129.8c-3.1,3.28-6.14,5.14-6,5.36.4.8,7-.66,12.84-4.51.27-.18.53-.36.78-.55Z" transform="translate(-10.5 -4.15)"/><polyline class="hero-cls-6" points="576.77 121.69 578.28 119.83 570.05 116.49 569.25 118.64"/><polyline class="hero-cls-6" points="573.99 124.44 572.05 125.95 566.59 123.11 567.88 121.22 573.99 124.44"/><path class="hero-cls-8" d="M745.85,9.59c9.27.94,10.46,3,15.69,3.39,8.25.56,8.91-4.41,19.5-5.08,4.48-.28,7.64.4,13.67,1.7,9.9,2.12,19.08,6.18,18.82,7.25-.15.59-3.08-.19-8.68-.17-3.89,0-6.12.39-14,1.62-11,1.73-16.49,2.56-19,2.72-6,.38-9.82.62-14.6-1-3.88-1.32-4.14-2.42-11.54-5.69-5.49-2.42-8.49-3.19-8.37-4C737.53,9.42,742.45,9.24,745.85,9.59Z" transform="translate(-10.5 -4.15)"/><path class="hero-cls-9" d="M832.58,51.74" transform="translate(-10.5 -4.15)"/><path class="hero-cls-9" d="M737.39,10.37" transform="translate(-10.5 -4.15)"/><path class="hero-cls-8" d="M737.39,10.37a146.35,146.35,0,0,1,14.09,16,56.27,56.27,0,0,1,5.44,9.16c1.3,2.81,2.05,5.5,5.42,6,0,0,14.94-2.46,24.87-.28l-.4.06a2.5,2.5,0,0,0,1.73-.72c7.44-10.14,14.19-18.24,25-23.73" transform="translate(-10.5 -4.15)"/><path class="hero-cls-8" d="M733.88,55C722,65.9,710.6,87.5,717.45,103.19c1.78,4.08,5,8.2,13.24,13.29,34.76,21.43,75,6.69,77.38,5.7,8.35-3.41,14.13-5.87,18.45-12.24,9.43-13.9,4.69-35.82-4.29-48.51C804,35.65,757.85,33.11,733.88,55Z" transform="translate(-10.5 -4.15)"/><path class="hero-cls-10" d="M984.08,69.07l-10.77-4.83a7.13,7.13,0,0,1-3.21-9.84l5.72-10.65c3.09-5.75-2.47-12.34-8.35-9.91l-10.91,4.5a6.68,6.68,0,0,1-9-4.6L944.41,22a6.65,6.65,0,0,0-12.66-.87l-4.65,11.2a6.62,6.62,0,0,1-9.46,3.34L907.4,29.73c-5.53-3.21-11.87,2.57-9.54,8.69l4.33,11.33a7.05,7.05,0,0,1-4.42,9.32l-11.29,3.32c-6.09,1.79-6.64,10.55-.83,13.15l10.77,4.84a7.11,7.11,0,0,1,3.21,9.83l-5.72,10.65c-3.09,5.75,2.47,12.35,8.36,9.92l10.9-4.51a6.68,6.68,0,0,1,9,4.6l3.2,11.74a6.65,6.65,0,0,0,12.65.86l4.65-11.2a6.62,6.62,0,0,1,9.46-3.33l10.24,6c5.53,3.21,11.88-2.57,9.54-8.69l-4.33-11.34A7.05,7.05,0,0,1,972,85.55l11.29-3.33C989.34,80.43,989.9,71.68,984.08,69.07ZM950.2,79.59a13.14,13.14,0,0,1-3.47,5.61,12.61,12.61,0,0,1-5.4,3.61,12.25,12.25,0,0,1-6.46,1.5,32.67,32.67,0,0,1-4.64-.63c-2.48-.44-5.75-2.72-7.48-4.52s-3.93-5.2-4.35-7.78a37,37,0,0,1-.61-4.82,18,18,0,0,1,2.29-8.8c.88-1.18,1.75-2.36,2.63-3.53a16.56,16.56,0,0,1,7.4-4.49l4.46-.62a12.29,12.29,0,0,1,6.47,1.5,12.35,12.35,0,0,1,5.39,3.61c.09.08.16.17.25.26l.05,0c.06.06.1.13.16.19a13.12,13.12,0,0,1,1,1.15A17.55,17.55,0,0,1,951,68.23l.6,4.64A13.54,13.54,0,0,1,950.2,79.59Z" transform="translate(-10.5 -4.15)"/><path class="hero-cls-2" d="M25.61,226.31" transform="translate(-10.5 -4.15)"/><path class="hero-cls-11" d="M71.66,264.59" transform="translate(-10.5 -4.15)"/><path class="hero-cls-3" d="M126.89,208.09C102.67,155.82,43.63,188,55,231.52l3.38,14.54L19,286.7c-3.81,3.92-1.34,10.67,4,11,3.05,3,41.89-41.43,44.3-42.66C111,268.22,134,239.14,126.89,208.09Zm-7.72,24C104.39,268.94,50.7,249.65,60.28,211,73.74,167.57,135,190.17,119.17,232.12Z" transform="translate(-10.5 -4.15)"/><ellipse class="hero-cls-3" cx="79.96" cy="215.1" rx="31.31" ry="32.56"/><path class="hero-cls-4" d="M220,275.84" transform="translate(-10.5 -4.15)"/><path class="hero-cls-4" d="M196.58,253.62l-.87-.59c-1,1.68-2,3.37-2.92,5.07-3.43,6-6.62,12.24-9.89,18.39-3,5.58-6.22,11-8.4,17-.41,1.12-1.73,4.44.37,4.6,1.63.13,2.9-2.75,3.51-3.93,2.94-5.64,5.52-11.48,8.29-17.22,3.62-7.49,7.55-14.85,11.82-22C197.86,254.51,197.23,254.06,196.58,253.62Z" transform="translate(-10.5 -4.15)"/><path class="hero-cls-4" d="M199.4,250.06l-1.31-1c-.42.7-.85,1.4-1.26,2.1l1.63,1.11,1.17.86c.38-.63.77-1.25,1.16-1.88Z" transform="translate(-10.5 -4.15)"/><path class="hero-cls-4" d="M301.87,200.47A40.16,40.16,0,0,0,271,187.81c-12.13.57-23.37,6.5-33,13.84-15.85,12.08-28.17,28.29-38.7,45.46l2.11,1.73.6.5a198.26,198.26,0,0,1,27.11-34.24c8.55-8.53,18.12-16.37,29.28-20.82a43.66,43.66,0,0,1,35.86,1.36,45.32,45.32,0,0,1,7.68,4.88Z" transform="translate(-10.5 -4.15)"/><path class="hero-cls-5" d="M265.15,229.4" transform="translate(-10.5 -4.15)"/><path class="hero-cls-5" d="M296.47,193.73" transform="translate(-10.5 -4.15)"/><polygon class="hero-cls-4" points="187.99 250.82 189.13 248.94 186.33 246.97 185.21 248.87 187.99 250.82"/><polygon class="hero-cls-4" points="190.29 247.06 191.47 245.19 188.75 242.96 187.59 244.87 190.29 247.06"/><path class="hero-cls-6" d="M409.55,202.9l.73.2.51,0a10.92,10.92,0,0,1,3.11.44c22.45-52.5-50.6-22-50.6-22C399.46,172.71,407.8,191,409.55,202.9Z" transform="translate(-10.5 -4.15)"/><path class="hero-cls-7" d="M360,197.69" transform="translate(-10.5 -4.15)"/><path class="hero-cls-6" d="M412.66,203.24a9.55,9.55,0,0,1,2.92,1,10.84,10.84,0,0,1,2.41-.27c9.36-9.64,28.69-19.5,57.25,14.72C475.24,218.65,423.62,135.19,412.66,203.24Z" transform="translate(-10.5 -4.15)"/><path class="hero-cls-6" d="M391.64,287.72c1,.51,2.1,1,3.17,1.4,1.68.68,3.36,1.32,5.05,1.94,1.75-2.32,3.11-4.68,4.75-6.92,8.72-11.94,16.8-8.76,27.38-18.27,9.69-8.72,20.22-27,14.1-42.27-5.85-14.58-23.59-18.36-26.15-18.87l-9.63-.65-9.62-.64c-14.56-.33-27.36,7.68-32.65,19.09S365,248.78,380.51,262.1C392.13,272.37,393.66,281.07,391.64,287.72Z" transform="translate(-10.5 -4.15)"/><path class="hero-cls-6" d="M391,293.19c1.57.73,3.08,1.63,4.61,2.48a27.85,27.85,0,0,0,2.78-2.75,76.43,76.43,0,0,1-7.53-3,21.15,21.15,0,0,1-1.37,2.58Z" transform="translate(-10.5 -4.15)"/><path class="hero-cls-6" d="M393,296.84c-1.42-.78-2.84-1.52-4.3-2.23l-.54-.27a27.35,27.35,0,0,1-2.14,2.53c-3.09,3.28-6.13,5.15-6,5.37.4.8,7-.66,12.83-4.52l.79-.54Z" transform="translate(-10.5 -4.15)"/><polyline class="hero-cls-6" points="387.86 288.77 389.36 286.91 381.14 283.57 380.33 285.72"/><polyline class="hero-cls-6" points="385.07 291.52 383.14 293.03 377.68 290.19 378.96 288.3 385.07 291.52"/><path class="hero-cls-8" d="M556.93,176.67c9.28.94,10.46,3,15.7,3.39,8.24.56,8.91-4.41,19.5-5.08,4.47-.28,7.64.4,13.66,1.69,9.91,2.13,19.09,6.19,18.82,7.26-.15.59-3.07-.19-8.67-.17-3.9,0-6.12.39-14,1.62-11,1.73-16.49,2.56-19,2.72-6,.38-9.82.62-14.59-1-3.88-1.32-4.14-2.43-11.54-5.69-5.5-2.42-8.49-3.2-8.38-4C548.62,176.49,553.53,176.32,556.93,176.67Z" transform="translate(-10.5 -4.15)"/><path class="hero-cls-9" d="M643.67,218.82" transform="translate(-10.5 -4.15)"/><path class="hero-cls-9" d="M548.47,177.45" transform="translate(-10.5 -4.15)"/><path class="hero-cls-8" d="M548.48,177.45a146.35,146.35,0,0,1,14.09,16,57,57,0,0,1,5.44,9.16c1.3,2.81,2,5.5,5.42,5.95,0,0,14.93-2.47,24.87-.28l-.4.06a2.54,2.54,0,0,0,1.73-.72c7.44-10.14,14.18-18.24,25-23.73" transform="translate(-10.5 -4.15)"/><path class="hero-cls-8" d="M545,222.1c-11.9,10.88-23.28,32.48-16.43,48.17,1.77,4.08,5,8.2,13.24,13.29,34.76,21.43,75,6.69,77.38,5.7,8.34-3.41,14.13-5.87,18.44-12.24,9.43-13.9,4.69-35.82-4.29-48.51C615.08,202.73,568.94,200.19,545,222.1Z" transform="translate(-10.5 -4.15)"/><path class="hero-cls-10" d="M815.69,236.15l-10.77-4.84a7.1,7.1,0,0,1-3.21-9.83l5.72-10.65c3.09-5.75-2.47-12.34-8.36-9.91l-10.9,4.5a6.68,6.68,0,0,1-9-4.6L776,189.08a6.65,6.65,0,0,0-12.65-.86l-4.65,11.2a6.61,6.61,0,0,1-9.46,3.33L739,196.8c-5.52-3.21-11.87,2.58-9.53,8.69l4.33,11.34a7.05,7.05,0,0,1-4.42,9.31l-11.29,3.33c-6.09,1.79-6.65,10.54-.83,13.15L728,247.46a7.12,7.12,0,0,1,3.21,9.83l-5.73,10.65c-3.08,5.75,2.48,12.34,8.36,9.91l10.91-4.5a6.68,6.68,0,0,1,9,4.6l3.19,11.74a6.65,6.65,0,0,0,12.66.86l4.65-11.2A6.62,6.62,0,0,1,783.7,276l10.24,6c5.53,3.21,11.87-2.58,9.54-8.69l-4.34-11.34a7.06,7.06,0,0,1,4.43-9.31l11.29-3.33C821,247.51,821.5,238.76,815.69,236.15ZM781.8,246.66a13.1,13.1,0,0,1-3.46,5.62,12.5,12.5,0,0,1-5.4,3.6,12.2,12.2,0,0,1-6.47,1.51,32.47,32.47,0,0,1-4.63-.63c-2.49-.44-5.76-2.72-7.49-4.52s-3.93-5.2-4.35-7.78a37.51,37.51,0,0,1-.6-4.82,17.89,17.89,0,0,1,2.29-8.81l2.62-3.53a16.66,16.66,0,0,1,7.41-4.48l4.46-.62a12.16,12.16,0,0,1,6.46,1.5,12.5,12.5,0,0,1,5.4,3.6c.09.09.16.18.24.27l.06,0,.15.19a13.24,13.24,0,0,1,1,1.15,17.71,17.71,0,0,1,3.18,6.36l.6,4.63A13.5,13.5,0,0,1,781.8,246.66Z" transform="translate(-10.5 -4.15)"/><path class="hero-cls-1" d="M983.91,234.62s-5.38-14-22.78-25.43c0,0-28.55-18.34-51.91-6.74,0,0-13.7,6.08-16.91,38S877,278.58,877,278.58s21.41,23.19,70.36,13.34l-.12-.94c-6.68-2.59-11.26-9.33-11.59-17.08-.42-9.85,8.37-18.24,17.55-18.24,9.84,0,17.13,8.36,17.55,18.24a16.54,16.54,0,0,1-2.55,9.42c.18.13.36.27.53.42C994.31,266.85,983.91,234.62,983.91,234.62Z" transform="translate(-10.5 -4.15)"/><polygon class="hero-cls-1" points="973.88 190.23 955.71 208.64 951.1 205.36 959.28 180.26 973.88 190.23"/><path class="hero-cls-4" d="M58.26,442.67" transform="translate(-10.5 -4.15)"/><path class="hero-cls-4" d="M34.87,420.45l-.88-.59c-1,1.69-2,3.38-2.92,5.07-3.42,6.06-6.61,12.24-9.88,18.39-3,5.58-6.22,11-8.41,17-.41,1.12-1.72,4.44.38,4.6,1.62.13,2.89-2.75,3.51-3.93,2.93-5.65,5.52-11.49,8.29-17.22,3.62-7.49,7.55-14.85,11.82-22C36.15,421.35,35.51,420.89,34.87,420.45Z" transform="translate(-10.5 -4.15)"/><path class="hero-cls-4" d="M37.69,416.89c-.43-.35-.87-.69-1.31-1-.42.7-.85,1.39-1.26,2.1.54.36,1.09.73,1.62,1.11s.78.57,1.17.86l1.17-1.88Z" transform="translate(-10.5 -4.15)"/><path class="hero-cls-4" d="M140.16,367.3a40.15,40.15,0,0,0-30.92-12.65c-12.13.57-23.37,6.5-33,13.83-15.85,12.08-28.17,28.3-38.7,45.47l2.11,1.72.6.51a198.71,198.71,0,0,1,27.11-34.25c8.55-8.52,18.12-16.37,29.28-20.82a43.66,43.66,0,0,1,35.86,1.37,45,45,0,0,1,7.68,4.87Z" transform="translate(-10.5 -4.15)"/><path class="hero-cls-5" d="M103.44,396.24" transform="translate(-10.5 -4.15)"/><path class="hero-cls-5" d="M122.76,360.56" transform="translate(-10.5 -4.15)"/><polygon class="hero-cls-4" points="26.28 417.66 27.41 415.77 24.61 413.8 23.49 415.71 26.28 417.66"/><polygon class="hero-cls-4" points="28.58 413.89 29.75 412.02 27.04 409.8 25.88 411.71 28.58 413.89"/><path class="hero-cls-6" d="M235.84,369.74c.25.05.49.13.73.2l.51,0a10.92,10.92,0,0,1,3.11.44c22.44-52.5-50.6-21.94-50.6-21.94C225.75,339.54,234.09,357.87,235.84,369.74Z" transform="translate(-10.5 -4.15)"/><path class="hero-cls-7" d="M186.32,364.52" transform="translate(-10.5 -4.15)"/><path class="hero-cls-6" d="M239,370.07a10.23,10.23,0,0,1,2.92,1,11.47,11.47,0,0,1,2.41-.27c9.35-9.63,28.68-19.5,57.25,14.72C301.53,385.48,249.9,302,239,370.07Z" transform="translate(-10.5 -4.15)"/><path class="hero-cls-6" d="M217.92,454.56c1.05.51,2.11,1,3.18,1.4,1.67.67,3.36,1.31,5.05,1.94,1.75-2.33,3.11-4.68,4.75-6.93,8.72-11.93,16.8-8.75,27.38-18.27,9.68-8.71,20.22-27,14.09-42.27-5.84-14.58-23.58-18.36-26.15-18.87l-9.62-.64-9.62-.65c-14.56-.32-27.37,7.68-32.65,19.1s-3.05,26.24,12.47,39.56C218.41,439.2,220,447.91,217.92,454.56Z" transform="translate(-10.5 -4.15)"/><path class="hero-cls-6" d="M217.26,460c1.57.73,3.08,1.63,4.6,2.48a25,25,0,0,0,2.78-2.75,74.82,74.82,0,0,1-7.52-3,21.06,21.06,0,0,1-1.37,2.58C216.25,459.55,216.75,459.79,217.26,460Z" transform="translate(-10.5 -4.15)"/><path class="hero-cls-6" d="M219.31,463.68c-1.42-.79-2.85-1.52-4.3-2.24l-.54-.27a28.91,28.91,0,0,1-2.14,2.54c-3.09,3.28-6.13,5.15-6,5.36.4.81,7-.66,12.83-4.51l.79-.54Z" transform="translate(-10.5 -4.15)"/><polyline class="hero-cls-6" points="214.14 455.6 215.65 453.75 207.43 450.41 206.62 452.56"/><polyline class="hero-cls-6" points="211.36 458.35 209.43 459.86 203.97 457.02 205.25 455.14 211.36 458.35"/><path class="hero-cls-8" d="M383.22,343.5c9.27.94,10.46,3,15.69,3.39,8.25.56,8.92-4.4,19.5-5.07,4.48-.29,7.65.39,13.67,1.69,9.91,2.13,19.09,6.18,18.82,7.25-.15.59-3.07-.18-8.67-.17-3.9,0-6.12.39-14,1.63-11,1.72-16.49,2.55-19,2.71-6,.39-9.82.63-14.59-1-3.88-1.32-4.14-2.42-11.54-5.68-5.5-2.42-8.5-3.2-8.38-4C374.91,343.33,379.82,343.16,383.22,343.5Z" transform="translate(-10.5 -4.15)"/><path class="hero-cls-9" d="M470,385.65" transform="translate(-10.5 -4.15)"/><path class="hero-cls-9" d="M374.76,344.29" transform="translate(-10.5 -4.15)"/><path class="hero-cls-8" d="M374.76,344.29a145.2,145.2,0,0,1,14.09,16,56.32,56.32,0,0,1,5.45,9.16c1.3,2.82,2.05,5.51,5.42,6,0,0,14.93-2.47,24.87-.28l-.4,0a2.51,2.51,0,0,0,1.73-.71c7.44-10.15,14.18-18.25,25-23.74" transform="translate(-10.5 -4.15)"/><path class="hero-cls-8" d="M371.26,388.93c-11.91,10.88-23.28,32.48-16.44,48.18,1.78,4.07,5,8.19,13.24,13.29,34.76,21.42,75,6.68,77.39,5.69,8.34-3.41,14.12-5.87,18.44-12.24,9.43-13.9,4.69-35.81-4.29-48.51C441.37,369.57,395.23,367,371.26,388.93Z" transform="translate(-10.5 -4.15)"/><path class="hero-cls-10" d="M642,403l-10.78-4.83a7.12,7.12,0,0,1-3.2-9.84l5.72-10.65c3.09-5.74-2.48-12.34-8.36-9.91l-10.91,4.5a6.67,6.67,0,0,1-9-4.59l-3.2-11.74a6.65,6.65,0,0,0-12.65-.87L585,366.25a6.62,6.62,0,0,1-9.46,3.34l-10.25-5.95c-5.52-3.21-11.87,2.57-9.53,8.69l4.33,11.34a7.06,7.06,0,0,1-4.42,9.31l-11.29,3.32c-6.1,1.8-6.65,10.55-.84,13.16l10.78,4.83a7.13,7.13,0,0,1,3.21,9.84l-5.73,10.65c-3.09,5.74,2.48,12.34,8.36,9.91l10.91-4.5a6.67,6.67,0,0,1,8.95,4.59l3.2,11.74a6.65,6.65,0,0,0,12.65.87l4.65-11.2a6.62,6.62,0,0,1,9.46-3.34l10.25,5.95c5.53,3.21,11.87-2.57,9.53-8.69l-4.33-11.34a7.06,7.06,0,0,1,4.42-9.31l11.29-3.32C647.24,414.34,647.79,405.59,642,403ZM608.09,413.5a13,13,0,0,1-3.47,5.61,12.52,12.52,0,0,1-5.4,3.61,12.25,12.25,0,0,1-6.46,1.5,32.9,32.9,0,0,1-4.64-.63c-2.48-.43-5.75-2.71-7.48-4.52s-3.93-5.2-4.35-7.78a37.25,37.25,0,0,1-.6-4.82,17.85,17.85,0,0,1,2.29-8.8l2.62-3.53a16.68,16.68,0,0,1,7.41-4.49l4.46-.62a12.27,12.27,0,0,1,6.46,1.5,12.61,12.61,0,0,1,5.4,3.61c.09.08.16.18.24.26l0,.05.16.18a11.69,11.69,0,0,1,1,1.16,17.6,17.6,0,0,1,3.19,6.35l.6,4.64A13.66,13.66,0,0,1,608.09,413.5Z" transform="translate(-10.5 -4.15)"/><path class="hero-cls-1" d="M811.28,401.45s-5.38-14-22.78-25.43c0,0-28.56-18.34-51.91-6.74,0,0-13.7,6.08-16.91,38s-15.35,38.14-15.35,38.14,21.42,23.19,70.37,13.34l-.12-.95c-6.69-2.58-11.26-9.33-11.59-17.07-.43-9.86,8.37-18.25,17.55-18.25,9.84,0,17.12,8.36,17.55,18.25a16.49,16.49,0,0,1-2.55,9.41c.18.13.36.27.53.42C821.68,433.69,811.28,401.45,811.28,401.45Z" transform="translate(-10.5 -4.15)"/><polygon class="hero-cls-1" points="801.25 357.07 783.08 375.48 778.46 372.19 786.65 347.09 801.25 357.07"/><path class="hero-cls-2" d="M890.67,406.73" transform="translate(-10.5 -4.15)"/><path class="hero-cls-3" d="M936.72,445" transform="translate(-10.5 -4.15)"/><path class="hero-cls-6" d="M65.1,542.85c.26.06.5.13.74.2l.51,0a11.16,11.16,0,0,1,3.1.43C91.9,491,18.86,521.52,18.86,521.52,55,512.66,63.36,531,65.1,542.85Z" transform="translate(-10.5 -4.15)"/><path class="hero-cls-7" d="M41.57,520.68" transform="translate(-10.5 -4.15)"/><path class="hero-cls-6" d="M68.22,543.19a9.76,9.76,0,0,1,2.91.95,11.55,11.55,0,0,1,2.41-.27c9.36-9.63,28.69-19.5,57.26,14.73C130.8,558.6,79.17,475.14,68.22,543.19Z" transform="translate(-10.5 -4.15)"/><path class="hero-cls-6" d="M47.19,627.67c1,.51,2.11,1,3.18,1.4,1.67.67,3.36,1.31,5.05,1.94,1.75-2.32,3.1-4.68,4.74-6.93,8.73-11.93,16.81-8.75,27.38-18.26,9.69-8.72,20.23-27,14.1-42.27C95.8,549,78.05,545.18,75.49,544.68L65.87,544l-9.63-.65c-14.56-.32-27.36,7.69-32.64,19.1s-3.05,26.24,12.46,39.57C47.68,612.31,49.22,621,47.19,627.67Z" transform="translate(-10.5 -4.15)"/><path class="hero-cls-6" d="M46.53,633.13c1.57.74,3.08,1.63,4.6,2.49a26.82,26.82,0,0,0,2.78-2.75,74,74,0,0,1-7.52-3A21.06,21.06,0,0,1,45,632.4C45.52,632.66,46,632.9,46.53,633.13Z" transform="translate(-10.5 -4.15)"/><path class="hero-cls-6" d="M48.58,636.79c-1.43-.78-2.85-1.52-4.3-2.23l-.54-.27a29,29,0,0,1-2.14,2.53c-3.09,3.28-6.13,5.15-6,5.37.4.8,7-.66,12.84-4.52l.79-.54C49,637,48.78,636.91,48.58,636.79Z" transform="translate(-10.5 -4.15)"/><polyline class="hero-cls-6" points="43.41 628.72 44.92 626.86 36.69 623.52 35.89 625.67"/><polyline class="hero-cls-6" points="40.63 631.47 38.7 632.98 33.24 630.13 34.52 628.25 40.63 631.47"/><path class="hero-cls-8" d="M200.49,516.61c9.27.95,10.46,3,15.69,3.4,8.25.55,8.92-4.41,19.5-5.08,4.48-.28,7.64.4,13.67,1.69,9.9,2.13,19.09,6.19,18.82,7.25-.15.59-3.08-.18-8.68-.17-3.89,0-6.12.4-14,1.63-11,1.72-16.49,2.55-19,2.71-6,.39-9.82.63-14.6-1-3.88-1.33-4.14-2.43-11.54-5.69-5.49-2.42-8.49-3.2-8.37-4C192.17,516.44,197.09,516.27,200.49,516.61Z" transform="translate(-10.5 -4.15)"/><path class="hero-cls-9" d="M287.22,558.76" transform="translate(-10.5 -4.15)"/><path class="hero-cls-9" d="M192,517.4" transform="translate(-10.5 -4.15)"/><path class="hero-cls-8" d="M192,517.4a146.35,146.35,0,0,1,14.09,16,55.84,55.84,0,0,1,5.44,9.16c1.3,2.81,2.05,5.5,5.42,5.95,0,0,14.94-2.47,24.87-.28l-.39.05a2.47,2.47,0,0,0,1.72-.71c7.44-10.14,14.19-18.24,25-23.74" transform="translate(-10.5 -4.15)"/><path class="hero-cls-8" d="M188.53,562.05c-11.91,10.88-23.28,32.47-16.44,48.17,1.78,4.07,5,8.2,13.24,13.29,34.76,21.42,75,6.69,77.38,5.7,8.35-3.42,14.13-5.87,18.45-12.24,9.43-13.9,4.69-35.82-4.29-48.52C258.64,542.68,212.5,540.14,188.53,562.05Z" transform="translate(-10.5 -4.15)"/><path class="hero-cls-10" d="M459.24,576.1l-10.77-4.84a7.12,7.12,0,0,1-3.21-9.83L451,550.78c3.09-5.75-2.47-12.35-8.35-9.92l-10.91,4.51a6.68,6.68,0,0,1-9-4.6L419.57,529a6.65,6.65,0,0,0-12.66-.86l-4.65,11.2a6.62,6.62,0,0,1-9.46,3.33l-10.24-6c-5.53-3.21-11.87,2.57-9.54,8.69l4.33,11.34a7,7,0,0,1-4.42,9.31l-11.29,3.33c-6.09,1.79-6.64,10.54-.83,13.15l10.77,4.83a7.11,7.11,0,0,1,3.21,9.84l-5.72,10.65c-3.09,5.75,2.47,12.34,8.36,9.91l10.9-4.5a6.68,6.68,0,0,1,9,4.6l3.2,11.73a6.65,6.65,0,0,0,12.65.87l4.65-11.2a6.62,6.62,0,0,1,9.46-3.34l10.24,5.95c5.53,3.21,11.88-2.57,9.54-8.69l-4.33-11.33a7.06,7.06,0,0,1,4.42-9.32l11.29-3.32C464.5,587.46,465.06,578.7,459.24,576.1Zm-33.88,10.51a13.12,13.12,0,0,1-3.47,5.62,12.5,12.5,0,0,1-5.4,3.6,12.16,12.16,0,0,1-6.46,1.5,33.3,33.3,0,0,1-4.64-.62c-2.48-.44-5.75-2.72-7.48-4.52s-3.93-5.2-4.35-7.79a36.82,36.82,0,0,1-.61-4.81,17.9,17.9,0,0,1,2.3-8.81l2.62-3.53a16.63,16.63,0,0,1,7.4-4.48l4.46-.63a12.2,12.2,0,0,1,6.47,1.51,12.5,12.5,0,0,1,5.4,3.6c.08.09.15.18.24.27l.05,0c.06.06.1.13.16.19a13.12,13.12,0,0,1,1,1.15,17.73,17.73,0,0,1,3.19,6.36c.19,1.54.39,3.09.59,4.63A13.54,13.54,0,0,1,425.36,586.61Z" transform="translate(-10.5 -4.15)"/><path class="hero-cls-1" d="M628.55,574.57s-5.38-14-22.79-25.43c0,0-28.55-18.35-51.91-6.74,0,0-13.7,6.07-16.9,38s-15.35,38.13-15.35,38.13S543,641.72,592,631.87l-.12-1c-6.69-2.58-11.26-9.33-11.59-17.07-.43-9.85,8.37-18.25,17.55-18.25,9.84,0,17.12,8.36,17.55,18.25a16.57,16.57,0,0,1-2.56,9.41,4.43,4.43,0,0,1,.54.43C639,606.8,628.55,574.57,628.55,574.57Z" transform="translate(-10.5 -4.15)"/><polygon class="hero-cls-1" points="618.52 530.18 600.34 548.59 595.73 545.3 603.92 520.21 618.52 530.18"/><path class="hero-cls-2" d="M702.79,574.06" transform="translate(-10.5 -4.15)"/><path class="hero-cls-3" d="M748.84,612.34" transform="translate(-10.5 -4.15)"/><path class="hero-cls-3" d="M804.07,555.84c-24.22-52.27-83.26-20.05-71.86,23.43l3.37,14.54-39.42,40.64c-3.81,3.92-1.34,10.67,4,11,3.05,3,41.9-41.43,44.3-42.66C788.16,616,811.18,586.89,804.07,555.84Zm-7.72,24c-14.78,36.82-68.47,17.53-58.89-21.14C750.92,515.32,812.22,537.92,796.35,579.87Z" transform="translate(-10.5 -4.15)"/><ellipse class="hero-cls-3" cx="757.14" cy="562.85" rx="31.31" ry="32.56"/><path class="hero-cls-4" d="M901.23,624" transform="translate(-10.5 -4.15)"/><path class="hero-cls-4" d="M877.84,601.81c-.29-.2-.58-.4-.88-.59-1,1.69-2,3.38-2.92,5.07-3.42,6.06-6.62,12.24-9.88,18.39-3,5.58-6.22,11-8.41,17-.41,1.12-1.72,4.44.37,4.6,1.63.12,2.9-2.75,3.52-3.93,2.93-5.65,5.52-11.49,8.29-17.22,3.62-7.49,7.55-14.85,11.82-22C879.12,602.71,878.48,602.25,877.84,601.81Z" transform="translate(-10.5 -4.15)"/><path class="hero-cls-4" d="M880.65,598.25c-.43-.35-.87-.69-1.31-1-.42.7-.84,1.39-1.26,2.1.55.36,1.1.73,1.63,1.11s.78.57,1.17.86c.39-.63.77-1.26,1.16-1.88C881.58,599,881.12,598.63,880.65,598.25Z" transform="translate(-10.5 -4.15)"/><path class="hero-cls-4" d="M983.12,548.66A40.13,40.13,0,0,0,952.21,536c-12.13.57-23.37,6.5-33,13.83-15.85,12.08-28.18,28.3-38.71,45.47.72.57,1.42,1.15,2.11,1.72l.61.51a198.23,198.23,0,0,1,27.11-34.25c8.54-8.52,18.12-16.37,29.28-20.82a43.66,43.66,0,0,1,35.86,1.37,45,45,0,0,1,7.68,4.87Z" transform="translate(-10.5 -4.15)"/><path class="hero-cls-5" d="M946.4,577.6" transform="translate(-10.5 -4.15)"/><path class="hero-cls-5" d="M977.72,541.92" transform="translate(-10.5 -4.15)"/><polygon class="hero-cls-4" points="869.25 599.02 870.38 597.13 867.58 595.16 866.46 597.07 869.25 599.02"/><polygon class="hero-cls-4" points="871.54 595.25 872.72 593.38 870 591.16 868.84 593.07 871.54 595.25"/><path class="hero-cls-8" d="M42.59,686.11c9.27.95,10.46,3,15.69,3.39,8.25.56,8.91-4.4,19.5-5.07,4.48-.29,7.64.39,13.67,1.69,9.9,2.13,19.08,6.18,18.81,7.25-.14.59-3.07-.18-8.67-.17-3.89,0-6.12.39-14,1.63-11,1.72-16.5,2.55-19,2.71-6,.39-9.82.63-14.6-1-3.88-1.32-4.14-2.42-11.54-5.68-5.49-2.42-8.49-3.2-8.37-4C34.27,685.94,39.19,685.77,42.59,686.11Z" transform="translate(-10.5 -4.15)"/><path class="hero-cls-9" d="M117.32,728.26" transform="translate(-10.5 -4.15)"/><path class="hero-cls-9" d="M34.13,686.9" transform="translate(-10.5 -4.15)"/><path class="hero-cls-8" d="M34.13,686.9a146.25,146.25,0,0,1,14.09,16,56.27,56.27,0,0,1,5.44,9.16c1.3,2.82,2.05,5.51,5.42,6,0,0,14.94-2.47,24.87-.28l-.4.05a2.48,2.48,0,0,0,1.73-.71c7.44-10.15,14.19-18.25,25-23.74" transform="translate(-10.5 -4.15)"/><path class="hero-cls-8" d="M30.62,731.54C18.72,742.42,7.34,764,14.19,779.72c1.78,4.07,5,8.19,13.24,13.29,34.76,21.42,75,6.68,77.38,5.69,8.35-3.41,14.13-5.87,18.45-12.24,9.43-13.9,4.69-35.81-4.3-48.51C100.73,712.18,54.59,709.63,30.62,731.54Z" transform="translate(-10.5 -4.15)"/><path class="hero-cls-10" d="M289.34,745.59l-10.77-4.83a7.13,7.13,0,0,1-3.21-9.84l5.72-10.65c3.09-5.74-2.47-12.34-8.36-9.91l-10.9,4.5a6.68,6.68,0,0,1-9-4.59l-3.2-11.74a6.65,6.65,0,0,0-12.65-.87l-4.65,11.2a6.62,6.62,0,0,1-9.46,3.34l-10.24-6c-5.53-3.21-11.88,2.57-9.54,8.69l4.33,11.34a7.05,7.05,0,0,1-4.42,9.31l-11.29,3.32c-6.09,1.8-6.65,10.55-.83,13.16l10.77,4.83a7.12,7.12,0,0,1,3.21,9.84l-5.72,10.65c-3.09,5.74,2.47,12.34,8.36,9.91l10.9-4.5a6.68,6.68,0,0,1,9,4.59l3.2,11.74a6.65,6.65,0,0,0,12.65.87l4.65-11.2a6.62,6.62,0,0,1,9.46-3.34l10.24,5.95c5.53,3.21,11.88-2.57,9.54-8.69l-4.33-11.34a7.05,7.05,0,0,1,4.42-9.31l11.29-3.32C294.6,757,295.16,748.2,289.34,745.59Zm-33.88,10.52a13.24,13.24,0,0,1-3.47,5.61,12.52,12.52,0,0,1-5.4,3.61,12.27,12.27,0,0,1-6.46,1.5,32.67,32.67,0,0,1-4.64-.63c-2.48-.43-5.75-2.71-7.49-4.52s-3.92-5.2-4.34-7.78a35.1,35.1,0,0,1-.61-4.82,18,18,0,0,1,2.29-8.8l2.63-3.53a16.65,16.65,0,0,1,7.4-4.49l4.46-.62a12.25,12.25,0,0,1,6.46,1.5,12.61,12.61,0,0,1,5.4,3.61c.09.08.16.18.25.26l.05,0,.16.18c.34.37.67.76,1,1.16a17.58,17.58,0,0,1,3.18,6.35l.6,4.64A13.54,13.54,0,0,1,255.46,756.11Z" transform="translate(-10.5 -4.15)"/><path class="hero-cls-1" d="M458.65,744.06s-5.38-14-22.79-25.43c0,0-28.55-18.34-51.91-6.74,0,0-13.7,6.08-16.9,38S351.7,788,351.7,788s21.42,23.19,70.37,13.34l-.13-1c-6.68-2.58-11.25-9.33-11.59-17.07-.42-9.86,8.37-18.25,17.55-18.25,9.84,0,17.13,8.36,17.56,18.25a16.57,16.57,0,0,1-2.56,9.41,5.56,5.56,0,0,1,.54.42C469.05,776.3,458.65,744.06,458.65,744.06Z" transform="translate(-10.5 -4.15)"/><polygon class="hero-cls-1" points="448.61 699.68 430.44 718.09 425.83 714.8 434.02 689.7 448.61 699.68"/><path class="hero-cls-2" d="M532.89,743.56" transform="translate(-10.5 -4.15)"/><path class="hero-cls-3" d="M578.94,781.83" transform="translate(-10.5 -4.15)"/><path class="hero-cls-3" d="M634.17,725.34c-24.22-52.27-83.26-20.06-71.87,23.42l3.38,14.55-39.42,40.63c-3.81,3.92-1.34,10.67,4,11,3,3,41.89-41.43,44.3-42.66C618.26,785.47,641.28,756.39,634.17,725.34Zm-7.72,24c-14.78,36.81-68.47,17.53-58.89-21.14C581,684.82,642.32,707.42,626.45,749.37Z" transform="translate(-10.5 -4.15)"/><ellipse class="hero-cls-3" cx="587.24" cy="732.35" rx="31.31" ry="32.56"/><path class="hero-cls-4" d="M731.32,793.53" transform="translate(-10.5 -4.15)"/><path class="hero-cls-4" d="M707.94,771.31l-.88-.59q-1.48,2.52-2.92,5.07c-3.42,6.05-6.62,12.24-9.88,18.39-3,5.58-6.23,11-8.41,17-.41,1.12-1.73,4.44.37,4.61,1.63.12,2.9-2.75,3.51-3.94,2.94-5.64,5.53-11.48,8.3-17.22,3.62-7.49,7.55-14.84,11.81-22C709.21,772.2,708.58,771.75,707.94,771.31Z" transform="translate(-10.5 -4.15)"/><path class="hero-cls-4" d="M710.75,767.75c-.43-.35-.87-.69-1.31-1l-1.26,2.09,1.63,1.12,1.17.85c.38-.63.77-1.25,1.16-1.88Z" transform="translate(-10.5 -4.15)"/><path class="hero-cls-4" d="M813.22,718.16a40.17,40.17,0,0,0-30.91-12.66c-12.13.58-23.37,6.5-33,13.84-15.85,12.08-28.18,28.3-38.71,45.47.72.57,1.42,1.15,2.11,1.72.21.16.41.33.61.5a197.68,197.68,0,0,1,27.11-34.24c8.54-8.53,18.11-16.37,29.27-20.82a43.68,43.68,0,0,1,35.87,1.36,46.13,46.13,0,0,1,7.68,4.88Z" transform="translate(-10.5 -4.15)"/><path class="hero-cls-5" d="M776.5,747.1" transform="translate(-10.5 -4.15)"/><path class="hero-cls-5" d="M807.82,711.42" transform="translate(-10.5 -4.15)"/><polygon class="hero-cls-4" points="699.34 768.51 700.48 766.63 697.68 764.66 696.56 766.57 699.34 768.51"/><polygon class="hero-cls-4" points="701.64 764.75 702.82 762.88 700.1 760.65 698.94 762.56 701.64 764.75"/><path class="hero-cls-6" d="M918.59,724.83c.25,0,.49.13.73.2l.51,0a10.87,10.87,0,0,1,3.11.44c22.45-52.5-50.59-22-50.59-22C908.5,694.63,916.84,713,918.59,724.83Z" transform="translate(-10.5 -4.15)"/><path class="hero-cls-7" d="M869.07,719.61" transform="translate(-10.5 -4.15)"/><path class="hero-cls-6" d="M921.7,725.16a9.83,9.83,0,0,1,2.92,1,11.47,11.47,0,0,1,2.41-.27c9.36-9.63,28.69-19.5,57.25,14.72C984.28,740.57,932.66,657.12,921.7,725.16Z" transform="translate(-10.5 -4.15)"/><path class="hero-cls-6" d="M900.68,809.65c1,.51,2.1,1,3.17,1.4,1.68.67,3.36,1.31,5.06,1.94,1.74-2.33,3.1-4.68,4.74-6.93,8.72-11.94,16.81-8.75,27.38-18.27,9.69-8.72,20.22-27,14.1-42.27-5.85-14.58-23.59-18.36-26.15-18.87l-9.63-.64-9.62-.65c-14.56-.32-27.36,7.68-32.65,19.1S874,770.7,889.55,784C901.17,794.29,902.7,803,900.68,809.65Z" transform="translate(-10.5 -4.15)"/><path class="hero-cls-6" d="M900,815.11c1.58.73,3.09,1.63,4.61,2.48a25.86,25.86,0,0,0,2.78-2.75,74,74,0,0,1-7.53-3,20.44,20.44,0,0,1-1.37,2.58Z" transform="translate(-10.5 -4.15)"/><path class="hero-cls-6" d="M902.06,818.77c-1.42-.79-2.84-1.52-4.3-2.24-.17-.08-.36-.17-.54-.27a28.91,28.91,0,0,1-2.14,2.54c-3.09,3.28-6.13,5.14-6,5.36.4.81,7-.66,12.83-4.51.28-.18.54-.36.79-.54C902.48,819,902.27,818.88,902.06,818.77Z" transform="translate(-10.5 -4.15)"/><polyline class="hero-cls-6" points="896.9 810.69 898.4 808.83 890.18 805.5 889.37 807.65"/><polyline class="hero-cls-6" points="894.12 813.44 892.18 814.95 886.72 812.11 888 810.23 894.12 813.44"/><path class="hero-cls-10" d="M117.94,910.49l-10.77-4.83a7.13,7.13,0,0,1-3.21-9.84l5.72-10.65c3.09-5.74-2.47-12.34-8.35-9.91l-10.91,4.5a6.68,6.68,0,0,1-9-4.6l-3.19-11.73a6.65,6.65,0,0,0-12.66-.87L61,873.76a6.62,6.62,0,0,1-9.46,3.34l-10.24-6c-5.53-3.21-11.87,2.57-9.54,8.69l4.33,11.33a7.05,7.05,0,0,1-4.42,9.32l-11.29,3.32c-6.09,1.79-6.64,10.55-.83,13.16l10.77,4.83a7.11,7.11,0,0,1,3.21,9.83l-5.72,10.65c-3.09,5.75,2.47,12.35,8.36,9.92L47,947.7a6.68,6.68,0,0,1,9,4.59L59.19,964a6.65,6.65,0,0,0,12.65.86l4.65-11.2A6.62,6.62,0,0,1,86,950.36l10.24,5.95c5.53,3.21,11.88-2.57,9.54-8.69l-4.33-11.34a7.05,7.05,0,0,1,4.42-9.31l11.29-3.32C123.2,921.85,123.76,913.1,117.94,910.49ZM84.06,921a13.14,13.14,0,0,1-3.47,5.61,12.61,12.61,0,0,1-5.4,3.61,12.25,12.25,0,0,1-6.46,1.5,32.67,32.67,0,0,1-4.64-.63c-2.48-.43-5.75-2.72-7.49-4.52s-3.92-5.2-4.34-7.78a37,37,0,0,1-.61-4.82,18,18,0,0,1,2.29-8.8c.88-1.18,1.75-2.36,2.63-3.53a16.65,16.65,0,0,1,7.4-4.49l4.46-.62A12.29,12.29,0,0,1,74.9,898a12.49,12.49,0,0,1,5.39,3.61c.09.08.16.18.25.26l0,0c.06.06.1.13.16.19a13.12,13.12,0,0,1,1,1.15,17.71,17.71,0,0,1,3.18,6.36l.6,4.64A13.54,13.54,0,0,1,84.06,921Z" transform="translate(-10.5 -4.15)"/><path class="hero-cls-1" d="M275.25,909s-5.38-14-22.79-25.43c0,0-28.55-18.34-51.91-6.74,0,0-13.7,6.08-16.9,38s-15.35,38.14-15.35,38.14,21.42,23.19,70.37,13.34l-.13-.95c-6.68-2.58-11.25-9.33-11.58-17.07-.43-9.86,8.37-18.25,17.55-18.25,9.84,0,17.12,8.36,17.55,18.25a16.6,16.6,0,0,1-2.56,9.41,5.56,5.56,0,0,1,.54.42C285.65,941.2,275.25,909,275.25,909Z" transform="translate(-10.5 -4.15)"/><polygon class="hero-cls-1" points="265.21 864.58 247.04 882.99 242.43 879.7 250.62 854.6 265.21 864.58"/><path class="hero-cls-2" d="M349.49,908.46" transform="translate(-10.5 -4.15)"/><path class="hero-cls-3" d="M395.54,946.73" transform="translate(-10.5 -4.15)"/><path class="hero-cls-3" d="M450.77,890.24c-24.22-52.27-83.26-20.06-71.87,23.42l3.38,14.55-39.42,40.63c-3.81,3.92-1.34,10.67,4,11,3.05,3,41.9-41.43,44.3-42.66C434.86,950.37,457.88,921.29,450.77,890.24Zm-7.72,24c-14.78,36.81-68.47,17.53-58.89-21.14C397.62,849.72,458.92,872.32,443.05,914.27Z" transform="translate(-10.5 -4.15)"/><ellipse class="hero-cls-3" cx="403.84" cy="897.25" rx="31.31" ry="32.56"/><path class="hero-cls-4" d="M547.93,958.43" transform="translate(-10.5 -4.15)"/><path class="hero-cls-4" d="M524.54,936.21l-.88-.6c-1,1.69-2,3.38-2.92,5.07-3.42,6.06-6.62,12.25-9.88,18.39-3,5.59-6.23,11-8.41,17-.41,1.12-1.72,4.44.37,4.6,1.63.13,2.9-2.75,3.52-3.93,2.93-5.64,5.52-11.48,8.29-17.22,3.62-7.49,7.55-14.85,11.81-22C525.82,937.1,525.18,936.65,524.54,936.21Z" transform="translate(-10.5 -4.15)"/><path class="hero-cls-4" d="M527.35,932.65l-1.31-1-1.26,2.1c.55.36,1.1.74,1.63,1.11l1.17.86c.38-.63.77-1.25,1.16-1.88Z" transform="translate(-10.5 -4.15)"/><path class="hero-cls-4" d="M629.82,883.06a40.13,40.13,0,0,0-30.91-12.66c-12.13.57-23.37,6.5-33,13.84-15.85,12.08-28.18,28.29-38.71,45.46.72.57,1.42,1.16,2.11,1.72l.61.51A197.78,197.78,0,0,1,557,897.69c8.54-8.53,18.12-16.37,29.27-20.82a43.68,43.68,0,0,1,35.87,1.36,46.13,46.13,0,0,1,7.68,4.88Z" transform="translate(-10.5 -4.15)"/><path class="hero-cls-5" d="M593.1,912" transform="translate(-10.5 -4.15)"/><path class="hero-cls-5" d="M624.42,876.32" transform="translate(-10.5 -4.15)"/><polygon class="hero-cls-4" points="515.95 933.41 517.08 931.53 514.28 929.56 513.16 931.46 515.95 933.41"/><polygon class="hero-cls-4" points="518.24 929.65 519.42 927.78 516.7 925.55 515.54 927.46 518.24 929.65"/><path class="hero-cls-6" d="M732.37,889.45l.73.2.51,0a11.18,11.18,0,0,1,3.11.43c22.45-52.49-50.59-21.94-50.59-21.94C722.28,859.26,730.62,877.58,732.37,889.45Z" transform="translate(-10.5 -4.15)"/><path class="hero-cls-7" d="M682.85,884.23" transform="translate(-10.5 -4.15)"/><path class="hero-cls-6" d="M735.48,889.79a9.82,9.82,0,0,1,2.92,1,11.47,11.47,0,0,1,2.41-.27c9.36-9.63,28.69-19.49,57.26,14.73C798.07,905.2,746.44,821.74,735.48,889.79Z" transform="translate(-10.5 -4.15)"/><path class="hero-cls-6" d="M714.46,974.27c1,.51,2.1,1,3.17,1.4,1.68.67,3.36,1.32,5.06,1.94,1.75-2.32,3.1-4.68,4.74-6.92,8.72-11.94,16.81-8.76,27.38-18.27,9.69-8.72,20.22-27,14.1-42.27-5.84-14.58-23.59-18.36-26.15-18.87l-9.63-.65-9.62-.65c-14.56-.32-27.36,7.69-32.65,19.1s-3,26.25,12.47,39.57C715,958.91,716.48,967.62,714.46,974.27Z" transform="translate(-10.5 -4.15)"/><path class="hero-cls-6" d="M713.79,979.74c1.58.73,3.09,1.62,4.61,2.48a27.85,27.85,0,0,0,2.78-2.75,74.12,74.12,0,0,1-7.53-3.05,20.57,20.57,0,0,1-1.37,2.59Z" transform="translate(-10.5 -4.15)"/><path class="hero-cls-6" d="M715.84,983.39c-1.42-.78-2.84-1.52-4.3-2.23l-.54-.27a28.94,28.94,0,0,1-2.13,2.53c-3.1,3.28-6.14,5.15-6,5.37.4.8,7-.66,12.84-4.52l.78-.54Z" transform="translate(-10.5 -4.15)"/><polyline class="hero-cls-6" points="710.68 975.32 712.19 973.46 703.96 970.12 703.15 972.27"/><polyline class="hero-cls-6" points="707.9 978.07 705.96 979.58 700.5 976.74 701.78 974.85 707.9 978.07"/><path class="hero-cls-8" d="M891.07,865.11c9.27.94,10.46,3,15.69,3.39,8.25.56,8.92-4.4,19.5-5.07,4.48-.29,7.64.39,13.67,1.69,9.9,2.13,19.09,6.18,18.82,7.25-.15.59-3.08-.18-8.68-.17-3.89,0-6.11.39-14,1.63-11,1.72-16.49,2.55-19,2.71-6,.38-9.82.63-14.59-1-3.89-1.32-4.14-2.42-11.55-5.68-5.49-2.43-8.49-3.2-8.37-4C882.75,864.94,887.67,864.76,891.07,865.11Z" transform="translate(-10.5 -4.15)"/><path class="hero-cls-9" d="M994,911.75" transform="translate(-10.5 -4.15)"/><path class="hero-cls-9" d="M882.61,865.89" transform="translate(-10.5 -4.15)"/><path class="hero-cls-8" d="M882.61,865.89a146.35,146.35,0,0,1,14.09,16,56.27,56.27,0,0,1,5.44,9.16c1.31,2.81,2.05,5.51,5.42,6,0,0,14.94-2.47,24.87-.28l-.39.05a2.47,2.47,0,0,0,1.72-.71c7.44-10.15,14.19-18.25,25-23.74" transform="translate(-10.5 -4.15)"/><path class="hero-cls-8" d="M879.11,910.54c-11.91,10.88-23.28,32.48-16.44,48.18,1.78,4.07,5,8.19,13.24,13.29,34.76,21.42,75,6.68,77.38,5.69,8.35-3.41,14.13-5.87,18.45-12.24,9.43-13.9,4.69-35.81-4.29-48.51C949.22,891.18,903.08,888.63,879.11,910.54Z" transform="translate(-10.5 -4.15)"/><path class="hero-cls-2" d="M885.56,397.19" transform="translate(-10.5 -4.15)"/><path class="hero-cls-3" d="M931.61,435.47" transform="translate(-10.5 -4.15)"/><path class="hero-cls-3" d="M986.85,379C962.63,326.7,903.59,358.92,915,402.4l3.38,14.54-39.43,40.64c-3.8,3.92-1.34,10.67,4,11,3,3,41.89-41.43,44.29-42.66C970.93,439.1,994,410,986.85,379Zm-7.72,24c-14.78,36.82-68.47,17.53-58.89-21.14C933.69,338.46,995,361.06,979.13,403Z" transform="translate(-10.5 -4.15)"/><ellipse class="hero-cls-3" cx="939.92" cy="385.98" rx="31.31" ry="32.56"/></svg>