<svg xmlns="http://www.w3.org/2000/svg" viewBox="0 0 182.62 210.93">
    <defs>
       <style>
          .turnip-cls-1{fill:#39b54a;stroke:#39b54a;}.turnip-cls-1,.turnip-cls-2,.turnip-cls-3,.turnip-cls-4,.turnip-cls-5{stroke-miterlimit:10;}.turnip-cls-2{fill:#fff;stroke:#000;}.turnip-cls-3{fill:#fdf0d5;stroke:#fdf0d5;}.turnip-cls-4{fill:#dcc894;}.turnip-cls-4,.turnip-cls-5{stroke:#dcc894;}.turnip-cls-5{fill:none;stroke-width:5px;}
          .stonks{
          stroke-dasharray: 150;
          stroke-dashoffset : 150;
          transition: 4s all;
          }
          svg:hover .stonks{
          stroke-dashoffset : 0;
          }
       </style>
    </defs>
    <g id="leaves">
       <path class="turnip-cls-1" d="M45.46,39.25s131-52.71,75.67,47.55C121.13,86.8,129.65,19.4,45.46,39.25Z" transform="translate(-45.28 -16.03)"/>
       <path class="turnip-cls-2" d="M33.36,62.6" transform="translate(-45.28 -16.03)"/>
       <path class="turnip-cls-1" d="M204,39.79s-85.5-74-80.41,41.9C123.55,81.69,143.41,7.47,204,39.79Z" transform="translate(-45.28 -16.03)"/>
       <path class="turnip-cls-1" d="M227.48,97.24s-91.32-142-103.7-9.2C123.78,88,159.61,19,227.48,97.24Z" transform="translate(-45.28 -16.03)"/>
    </g>
    <g id="stalk">
       <path class="turnip-cls-3" d="M93.53,203.43c1.69.79,3.42,1.51,5.16,2.18,2.73,1.06,5.47,2.06,8.22,3,2.84-3.64,5-7.32,7.71-10.84,14.19-18.66,27.33-13.69,44.52-28.57,15.76-13.63,32.89-42.19,22.93-66.11-9.5-22.8-38.36-28.72-42.52-29.51l-15.65-1-15.65-1c-23.67-.5-44.49,12-53.08,29.87s-5,41.05,20.27,61.89C94.33,179.4,96.82,193,93.53,203.43Z" transform="translate(-45.28 -16.03)"/>
       <path class="turnip-cls-3" d="M92.45,212c2.56,1.15,5,2.55,7.49,3.88a43.49,43.49,0,0,0,4.52-4.3,123.87,123.87,0,0,1-12.24-4.76,34.15,34.15,0,0,1-2.22,4C90.81,211.23,91.63,211.6,92.45,212Z" transform="translate(-45.28 -16.03)"/>
       <path class="turnip-cls-3" d="M95.78,217.69c-2.31-1.23-4.62-2.38-7-3.5l-.88-.42a47.4,47.4,0,0,1-3.47,4c-5,5.13-10,8-9.8,8.39.65,1.25,11.41-1,20.87-7.06.44-.28.87-.57,1.28-.85Z" transform="translate(-45.28 -16.03)"/>
       <polyline class="turnip-cls-4" points="59.18 195.52 61.63 192.61 48.26 187.39 46.95 190.76"/>
       <polyline class="turnip-cls-4" points="54.66 199.82 51.52 202.19 42.64 197.74 44.72 194.79 54.66 199.82"/>
    </g>
    <g id="stonks">
       <polyline class="turnip-cls-5 stonks" points="29.36 127.68 46.95 108.97 59.18 124.08 78.06 118.33 89.47 133.88 118.37 81.21"/>
    </g>
 </svg>